<?xml version="1.0" encoding="UTF-8"?>
<svg id="Camada_1" data-name="Camada 1" xmlns="http://www.w3.org/2000/svg" viewBox="0 0 834 834">
  <defs>
    <style>
      .cls-1 {
        fill: #fefefe;
      }

      .cls-2 {
        fill: #feaf00;
      }

      .cls-3 {
        fill: #171714;
      }

      .cls-4 {
        fill: #161613;
      }
    </style>
  </defs>
  <path class="cls-1" d="M.09,417.04C.09,279.77,.11,142.5,0,5.23,0,1.27,.49,0,4.99,0,279.71,.15,554.44,.14,829.17,.02c4.1,0,4.83,.88,4.83,4.89-.12,274.71-.12,549.42-.01,824.12,0,3.84-.48,4.97-4.74,4.97-274.89-.14-549.79-.13-824.68-.03-3.81,0-4.57-.93-4.56-4.62,.11-137.44,.09-274.87,.09-412.31Z"/>
  <path class="cls-4" d="M234.69,330.76c-4.58,16.49-8.7,31.4-12.88,46.3-1.91,6.82-3.89,13.62-5.97,20.39-1.79,5.79-5.18,8.42-10.44,8.4-4.7-.02-8.43-2.98-10.15-8.14-9.15-27.51-18.28-55.03-27.41-82.56-.56-1.68-1.17-3.36-1.56-5.09-1.03-4.61,1.17-9.73,4.5-10.7,6.45-1.88,12.04,.91,14.07,7.13,2.7,8.27,5.32,16.57,8,24.85,3.92,12.11,7.85,24.23,11.82,36.33,.28,.84-.24,2.31,1.18,2.39,1.94,.12,1.11-1.57,1.4-2.54,5.72-19.32,11.44-38.64,17.17-57.96,.23-.77,.53-1.52,.76-2.29,1.23-4.31,3.06-7.95,8.37-8.06,7.51-.14,10.51,1.52,12.01,7.31,3.84,14.84,7.5,29.72,11.29,44.57,1.76,6.88,3.65,13.72,5.6,21.02,2.87-4.64,3.9-9.79,5.48-14.62,5.64-17.16,10.84-34.46,16.38-51.65,1.78-5.54,8.44-8.37,14.15-6.43,3.69,1.25,5.25,6.64,3.41,12.19-9.61,28.94-19.27,57.86-28.85,86.81-1.57,4.75-4.6,7.35-9.61,7.42-5.16,.07-8.64-2.21-10.02-7.38-5.38-20.1-10.84-40.18-16.13-60.31-.58-2.21-1.4-4.15-2.59-7.37Z"/>
  <path class="cls-2" d="M525.72,516.11c43.13,0,86.26,0,129.4,0,7.64,0,11.73,3.54,11.7,10.05-.03,6.92-4.18,10.63-12.01,10.63-52.79,0-105.58,.01-158.37,0-33.81,0-67.61-.2-101.42,.07-7.35,.06-13.91-7.31-10.92-13.9,1.95-4.29,5.07-6.91,10.22-6.9,43.8,.07,87.6,.04,131.39,.04Z"/>
  <path class="cls-4" d="M602.78,339.73c2.03-.12,3.23-1.06,4.46-2.18,14.01-12.75,28.05-25.48,42.12-38.16,4.03-3.63,9.93-2.98,13.48,1.35,3.48,4.24,2.36,9.72-1.76,13.58-6.73,6.31-13.69,12.35-20.61,18.45-3.95,3.48-7.71,7.18-11.68,10.63-1.72,1.5-1.79,2.29-.21,4.19,10.13,12.17,20.28,24.33,29.86,36.92,2.88,3.79,7.83,6.39,7.55,12.67-.22,4.78-2.27,7.53-6.11,9-3.97,1.52-8.16,1.44-11.21-2.3-7.54-9.23-15.01-18.52-22.48-27.8-4.4-5.46-8.77-10.93-13.1-16.45-.49-.63-.91-.83-1.62-.65-2.23,.54-8.67,8.99-8.67,11.41,0,8.49,0,16.99-.02,25.48-.01,4.49-1.84,8.27-6.14,9.57-4.19,1.27-8.5,.83-11.63-3.18-1.51-1.94-1.89-4.01-1.89-6.38,.04-44.14,.03-88.28,.05-132.42,0-6.59,3.47-10.2,9.73-10.21,6.16-.02,9.8,3.61,9.87,10.11,.1,9.16,.03,18.32,.03,27.48,0,16.28,0,32.56,0,48.89Z"/>
  <path class="cls-4" d="M330.19,352.63c-1.45-31.05,22.19-56.39,57.38-54.57,26.75,1.38,52.09,22.37,50.2,57.6-1.58,29.57-21.19,49.92-51.61,51.05-33.24,1.23-57.08-22.56-55.98-54.07Z"/>
  <path class="cls-3" d="M273.35,483.79c16.82-13.87,35.64-15.31,54.96-7.26,13.13,5.47,20.2,16.87,23.56,30.57,1.2,4.89,.97,9.82,.97,14.76,.02,16.48,.02,32.97-.02,49.45-.01,5.56-3.52,8.5-9.98,8.51-5.87,0-9.63-3.16-9.64-8.34-.05-15.65,.11-31.3-.1-46.95-.08-6.16-.71-12.41-3.18-18.13-3.87-8.95-11.51-13.81-20.59-15.28-10.97-1.77-21.51-.1-29.83,8.58-4.69,4.89-6.49,10.84-6.56,17.28-.18,17.81-.07,35.63-.09,53.44,0,6.84-2.74,9.4-10.01,9.4-6.35,0-9.62-3.15-9.62-9.37-.02-28.97-.02-57.94-.02-86.91,0-7.28,2.29-10.22,8.07-10.38,9.02-.24,11.03,1.47,11.65,9.87,.02,.26,.28,.5,.44,.77Z"/>
  <path class="cls-3" d="M494.03,312c8.36-10.38,19.12-13.63,30.43-14.53,6.5-.52,13.39,.12,19.4,3.74,3.76,2.26,5.92,5.58,4.76,9.89-1.13,4.2-4.09,6.19-8.9,5.88-6.25-.4-12.43-1.66-18.76-1.15-9.8,.79-18.49,3.65-23.94,12.51-2.21,3.59-3.23,7.68-3.23,11.97,.01,18.83,.02,37.65,0,56.48,0,6.54-2.79,9.07-9.86,9.06-7.06-.01-9.78-2.53-9.78-9.15-.01-29.16,0-58.32,0-87.47,0-7.24,2.42-9.95,8.94-10,8.24-.07,10.57,2.01,10.74,9.58,.01,.65,.08,1.29,.2,3.21Z"/>
  <path class="cls-3" d="M196.23,525.45c0-13.81,0-27.61,0-41.42,0-7.12,2.69-10.73,8.12-10.88,8.57-.23,12.16,2.76,12.51,10.58,.13,2.82,.02,5.65,.02,8.48,0,25.12,.02,50.24,0,75.36,0,8.4-3.86,12.4-11.56,12.2-5.34-.14-9.05-3.9-9.07-9.41-.04-14.97-.02-29.94-.01-44.91Z"/>
  <path class="cls-1" d="M383.69,388.19c-20.81,.7-33.4-17.1-33.92-33.5-.77-23.79,14.95-38.85,34.2-38.61,19.15,.24,33.92,13.33,34.12,36.66,.17,19.68-14.17,36.38-34.39,35.45Z"/>
</svg>