<?xml version="1.0" encoding="UTF-8"?>
<svg id="Camada_1" data-name="Camada 1" xmlns="http://www.w3.org/2000/svg" viewBox="0 0 834 834">
  <defs>
    <style>
      .cls-1 {
        fill: #fefefe;
      }

      .cls-2 {
        fill: #fdfdfd;
      }

      .cls-3 {
        fill: #171714;
      }

      .cls-4 {
        fill: #161613;
      }

      .cls-5 {
        fill: #525250;
      }

      .cls-6 {
        fill: #515150;
      }
    </style>
  </defs>
  <path class="cls-1" d="M833.91,417.5c0,137.3-.02,274.61,.09,411.91,0,3.75-.84,4.59-4.59,4.59-274.94-.1-549.88-.1-824.81,0C.85,834,0,833.16,0,829.41,.1,554.47,.1,279.53,0,4.59,0,.85,.84,0,4.59,0,279.53,.1,554.47,.1,829.41,0c3.75,0,4.6,.84,4.59,4.59-.11,137.64-.09,275.27-.09,412.91Z"/>
  <path class="cls-3" d="M603.78,339.74c2.15-.09,3.35-1.3,4.69-2.52,13.91-12.63,27.85-25.23,41.82-37.8,3.89-3.5,10.25-3.07,13.5,.77,3.6,4.26,3.06,10.8-.98,14.2-7.15,6.02-14.44,11.91-21.18,18.36-4.52,4.33-9.94,7.69-13.56,12.56,10.06,12.59,20.03,25.11,30.05,37.58,2.16,2.68,4.54,5.19,6.77,7.82,4,4.72,2.24,11.95-1.02,14.15-5.3,3.57-10.96,2.61-14.81-2.27-7.49-9.49-15.28-18.75-22.88-28.16-3.48-4.3-6.82-8.7-10.21-13.08-1.75-2.26-2.83-2.66-5.84-.66-6.05,4.02-6.85,9.18-6.45,15.61,.42,6.64,.13,13.32,.08,19.99-.04,5.78-3.77,9.49-9.47,9.54-6.24,.06-10.14-3.43-10.14-9.34-.03-44.66-.02-89.31,0-133.97,0-5.9,3.88-9.38,10.15-9.33,5.66,.05,9.45,3.78,9.45,9.51,.02,25.64,.01,51.29,.01,77.02Z"/>
  <path class="cls-4" d="M331.18,352.21c-1.63-29.33,20.87-57.39,60.13-54.07,24.35,2.06,49.25,22.3,47.45,57.22-1.57,30.42-21.86,50.44-52.33,51.36-32.12,.97-57.02-22.45-55.26-54.51Z"/>
  <path class="cls-3" d="M274.03,484.25c14.32-12.38,30.11-14.73,47.04-10.4,18.26,4.67,28.44,17.03,31.79,35.37,2.11,11.54,.59,23.17,.94,34.75,.25,8.32,.05,16.65,.05,24.98,0,7.41-2.68,10.57-8.62,10.92-7.7,.44-11.49-1.49-11.87-11.18-.63-15.8-.34-31.64-.1-47.46,.1-6.55-1.18-12.55-4.45-18.15-4.16-7.1-11-10.9-18.57-11.96-10.89-1.52-21.58-.31-29.78,8.64-4.25,4.64-6.5,10.08-6.55,16.25-.14,17.65-.05,35.31-.06,52.96,0,7.43-2.52,10.48-8.23,10.87-8.45,.57-11.36-1.86-12.29-10.79-.67-6.43-.14-12.98-.14-19.47,0-21.65-.1-43.3,.1-64.95,.04-4.16,.63-8.78,5.43-10.58,4.05-1.52,8.28-2.01,12.01,1.08,2.68,2.23,3.23,5.39,3.29,9.12Z"/>
  <path class="cls-3" d="M495.04,311.38c9.52-10.04,20.92-14.31,33.93-14.08,5.48,.1,11.02,.96,15.92,3.89,3.75,2.24,5.91,5.59,4.73,9.89-1.14,4.19-4.06,6.54-8.88,5.79-6.7-1.04-13.5-1.57-20.24-.94-9.17,.86-17.46,3.9-22.49,12.39-2.15,3.64-3.21,7.69-3.2,11.97,0,18.83,.01,37.65,0,56.48,0,6.5-2.85,9.08-9.88,9.06-7.08-.02-9.77-2.53-9.77-9.2-.01-29.16,.12-58.31-.09-87.47-.06-7.71,3.49-10.17,9.66-10.88,6.21-.71,9.98,3.64,10.09,10.74,0,.49,.09,.99,.23,2.35Z"/>
  <path class="cls-3" d="M216.88,526.72c0,14.65,0,29.3,0,43.95,0,4.94-3.09,8.75-7.35,9.12-7.65,.66-10.81-1.36-12.39-7.1-.81-2.94-.89-5.81-.9-8.75-.02-26.3-.02-52.61-.02-78.91,0-5.84,2.54-10.46,6.32-11.67,4.98-1.59,10.09,.14,13.12,3.84,1.38,1.69,1.21,3.32,1.21,5.08,.03,14.82,.02,29.63,.01,44.45Z"/>
  <path class="cls-5" d="M235.8,331.03c-6.63,22.82-13.1,45.13-19.6,67.43-1.39,4.76-4.52,7.46-9.58,7.54-5.46,.08-8.83-2.4-10.59-7.71-9.39-28.28-18.72-56.59-28.22-84.84-1.11-3.31-.96-6.57-.51-9.75,.58-4.12,4.43-5.39,7.69-5.41,3.57-.03,7.25,.88,9.2,5.08,3.3,7.09,5.32,14.61,7.77,21.97,5.02,15.05,9.65,30.22,14.66,46.05,2.27-7.42,4.41-14.19,6.42-20.99,4.41-14.9,8.68-29.84,13.18-44.72,1.48-4.88,6.1-7.92,10.64-7.62,4.06,.26,8.93,4.33,10.07,8.81,5.09,19.93,10.08,39.89,15.1,59.85,.39,1.56,.81,3.11,1.49,5.74,5.69-17.85,11.01-34.81,16.54-51.69,1.95-5.96,3.1-12.26,6.46-17.7,2.82-4.57,7.86-6.06,12.56-3.97,3.73,1.66,5.66,6.5,4.24,11.26-8.18,27.48-17.96,54.44-26.84,81.7-.85,2.61-1.71,5.23-2.83,7.73-2.13,4.77-5.88,6.86-11.12,6.24-4.67-.55-7.32-3.34-8.5-7.66-3.04-11.08-5.99-22.18-8.99-33.27-3.04-11.22-6.09-22.44-9.24-34.05Z"/>
  <path class="cls-5" d="M527.98,514.98c42.65,0,85.3,0,127.94,0,7.41,0,11.77,4.24,12.05,11.21,.26,6.55-5.47,11.96-12.02,11.94-85.96-.24-171.92-.16-257.89-.18-6.92,0-12.01-4.89-12.05-11.47-.04-6.56,5.07-11.5,12.01-11.51,43.31-.02,86.63,0,129.94,0Z"/>
  <path class="cls-2" d="M385.14,388.19c-21.02,.75-33.2-16.49-34.36-32.58-1.79-24.73,15.55-39.79,33.78-39.64,20.38,.17,34.27,14.53,34.49,36.8,.2,19.91-13.94,35.72-33.91,35.42Z"/>
  <path class="cls-4" d="M168.03,307.19c.1-2.83,.67-6.09,4.72-7.1,4.45-1.11,8.37-.29,10.38,4.26,4.54,10.31,7.55,21.17,10.95,31.88,3.51,11.03,7.06,22.06,10.64,33.07,.33,1.01,.25,2.61,1.87,2.53,1.66-.08,1.96-1.68,2.31-2.88,5.47-18.71,10.86-37.44,16.33-56.14,.74-2.53,1.95-4.93,2.68-7.47,1.24-4.3,4.67-5.69,8.39-5.68,3.56,0,6.78,1.66,8.25,5.38,3.05,7.71,4.33,15.9,6.43,23.87,3.54,13.4,6.78,26.88,10.29,40.29,.33,1.26,.25,3.46,2.11,3.56,2.34,.12,2.01-2.38,2.45-3.71,6.52-19.97,12.86-39.99,19.31-59.97,1.22-3.78,2.58-7.5,6.96-8.99,2.93-.99,5.55-.82,7.76,1.33,2.21,2.15,3.61,4.66,2.54,7.96-4.86,14.95-9.63,29.93-14.55,44.86-4.51,13.68-9.16,27.32-13.77,40.96-.47,1.4-1.05,2.79-1.72,4.11-1.88,3.69-4.7,6.09-9.08,5.68-4.32-.4-6.97-3.17-8.11-7.08-2.22-7.6-4.07-15.31-6.13-22.95-3.62-13.38-7.24-26.76-10.97-40.11-.46-1.63-.36-4.27-2.36-4.47-2.76-.29-1.85,2.77-2.25,4.17-5.63,19.34-11.02,38.75-16.49,58.14-.49,1.75-1.18,3.44-1.77,5.16-1.43,4.13-4.31,7.07-8.63,7.01-4.32-.05-7.92-2.31-9.43-6.84-9.49-28.59-18.96-57.18-28.5-85.75-.5-1.48-.54-2.92-.61-5.07Z"/>
  <path class="cls-4" d="M528.06,515.98c42.46,0,84.91,0,127.37,0,5.77,0,9.08,2.46,10.83,7.59,1.74,5.09-.57,8.62-4.23,11.67-1.74,1.45-3.84,1.74-6.08,1.74-85.75-.03-171.49-.02-257.24-.06-6.68,0-11.33-4.59-11.18-10.7,.15-6.12,4.73-10.25,11.66-10.25,42.96-.03,85.91-.01,128.87-.01Z"/>
  <path class="cls-6" d="M527.09,534.98c-42.8,0-85.59,0-128.39,0-6.53,0-9.8-2.91-9.7-8.6,.1-5.56,3.21-8.38,9.44-8.39,86.09-.01,172.19-.02,258.28,0,5.12,0,8.18,3.17,8.24,8.37,.06,5.44-3.04,8.62-8.48,8.62-43.13,0-86.26,0-129.39,0Z"/>
  <path class="cls-1" d="M527.5,533.97c-42.62,0-85.24,0-127.86,0-5.99,0-9.56-2.76-9.63-7.42-.07-4.66,3.57-7.58,9.52-7.58,85.24,0,170.48,0,255.73,.01,5.36,0,8.81,3.07,8.69,7.7-.12,4.43-3.47,7.29-8.57,7.29-42.62,0-85.24,0-127.86,0Z"/>
</svg>