<?xml version="1.0" standalone="no"?>
<!DOCTYPE svg PUBLIC "-//W3C//DTD SVG 20010904//EN"
 "http://www.w3.org/TR/2001/REC-SVG-20010904/DTD/svg10.dtd">
<svg version="1.0" xmlns="http://www.w3.org/2000/svg"
 width="512.000000pt" height="512.000000pt" viewBox="0 0 512.000000 512.000000"
 preserveAspectRatio="xMidYMid meet">

<g transform="translate(0.000000,512.000000) scale(0.100000,-0.100000)"
fill="#000000" stroke="none">
<path d="M1745 4185 c-50 -17 -117 -90 -133 -142 -8 -26 -12 -116 -12 -248 l0
-208 65 62 c64 62 66 63 115 59 l50 -3 0 138 0 137 830 0 c480 0 830 -4 830
-9 0 -5 -8 -12 -17 -15 -41 -16 -900 -521 -923 -542 l-25 -24 -3 -1186 -2
-1186 34 -34 c66 -66 55 -70 609 253 271 157 504 294 519 305 24 16 49 18 272
18 l246 0 0 115 0 115 -235 0 -235 0 0 1103 c0 707 -4 1115 -10 1138 -15 52
-49 99 -99 134 l-43 30 -896 2 c-751 2 -903 0 -937 -12z m1215 -1958 c35 -18
70 -74 70 -114 0 -76 -56 -133 -129 -133 -64 0 -104 27 -126 84 -17 43 -17 48
-1 90 11 28 29 52 49 65 36 23 99 27 137 8z"/>
<path d="M1692 3517 l-82 -82 0 -333 0 -332 -39 -24 c-62 -40 -111 -96 -145
-166 -28 -59 -31 -74 -31 -165 0 -90 3 -106 29 -160 95 -194 330 -274 519
-178 151 76 238 248 207 406 -21 107 -76 194 -160 252 -39 27 -40 29 -40 89 0
59 -1 62 -47 108 l-47 48 44 45 44 45 -44 45 -44 45 44 45 44 45 -44 45 -44
45 44 45 45 45 -85 85 -85 85 -83 -83z m136 -1157 c70 -43 75 -131 11 -185
-69 -58 -179 -3 -179 90 0 40 28 85 63 100 44 19 67 18 105 -5z"/>
<path d="M1598 1869 l-3 -80 -337 1 -338 0 0 -115 0 -115 453 2 452 3 3 178 2
177 -63 0 c-35 0 -86 7 -113 15 -27 8 -50 15 -51 15 -1 0 -3 -36 -5 -81z"/>
</g>
</svg>
