<?xml version="1.0" standalone="no"?>
<!DOCTYPE svg PUBLIC "-//W3C//DTD SVG 20010904//EN"
 "http://www.w3.org/TR/2001/REC-SVG-20010904/DTD/svg10.dtd">
<svg version="1.0" xmlns="http://www.w3.org/2000/svg"
 width="512.000000pt" height="512.000000pt" viewBox="0 0 512.000000 512.000000"
 preserveAspectRatio="xMidYMid meet">

<g transform="translate(0.000000,512.000000) scale(0.100000,-0.100000)"
fill="#000000" stroke="none">
<path d="M213 4109 c-70 -27 -146 -97 -180 -167 l-28 -57 0 -785 0 -785 23
-46 c46 -93 137 -169 226 -189 l31 -7 -3 200 c-4 224 8 307 56 390 43 76 118
144 202 185 l75 37 1920 3 c2086 2 1960 5 2069 -50 56 -28 143 -114 177 -173
49 -86 61 -167 57 -393 l-3 -200 42 13 c97 29 168 90 215 185 l23 45 0 785 0
785 -28 57 c-35 71 -110 140 -183 167 -55 21 -59 21 -2347 20 -2267 0 -2293 0
-2344 -20z m391 -451 c112 -34 176 -176 127 -283 -52 -112 -177 -155 -288
-100 -160 80 -146 317 22 379 50 18 87 19 139 4z"/>
<path d="M625 2732 c-62 -21 -114 -60 -150 -111 -46 -68 -55 -117 -55 -318 0
-182 0 -184 25 -208 l24 -25 2089 0 c2043 0 2090 0 2113 19 24 19 24 21 24
223 0 198 -1 204 -26 258 -31 66 -85 121 -148 152 l-46 23 -1900 2 c-1782 2
-1903 1 -1950 -15z"/>
<path d="M1265 1865 c-32 -31 -31 -54 4 -118 59 -104 50 -191 -32 -310 -66
-98 -90 -167 -84 -247 4 -71 21 -111 68 -165 24 -26 39 -35 63 -35 69 0 86 66
36 139 -49 72 -41 125 36 233 103 145 118 275 50 424 -46 99 -94 127 -141 79z"/>
<path d="M1782 1880 c-12 -5 -27 -22 -33 -37 -9 -24 -5 -38 25 -98 58 -112 50
-198 -29 -305 -19 -26 -47 -74 -62 -106 -50 -107 -32 -230 44 -311 74 -79 171
-3 109 85 -61 89 -56 134 28 261 73 109 90 162 84 265 -5 95 -43 191 -90 231
-32 27 -41 29 -76 15z"/>
<path d="M2276 1869 c-33 -26 -33 -58 -2 -112 64 -110 57 -200 -26 -318 -66
-94 -88 -152 -88 -232 1 -143 112 -265 180 -197 27 27 25 66 -6 107 -52 69
-43 138 34 250 53 79 79 142 88 216 14 117 -69 307 -134 307 -11 0 -31 -9 -46
-21z"/>
<path d="M2775 1865 c-32 -31 -31 -46 6 -112 23 -39 33 -72 36 -116 6 -74 -6
-108 -77 -217 -86 -133 -100 -238 -43 -341 49 -91 111 -115 153 -62 25 32 21
63 -15 105 -53 63 -43 128 41 251 68 98 88 165 82 268 -4 61 -11 91 -37 143
-50 102 -99 129 -146 81z"/>
<path d="M3295 1878 c-43 -24 -47 -70 -10 -126 45 -69 50 -175 10 -252 -8 -16
-33 -55 -55 -86 -98 -140 -98 -285 -1 -391 35 -39 80 -44 111 -13 28 28 25 55
-11 112 -28 43 -31 55 -27 103 4 45 14 68 59 137 66 100 75 119 89 196 18 100
-22 245 -85 308 -26 26 -49 30 -80 12z"/>
<path d="M3785 1865 c-31 -30 -32 -61 -2 -105 33 -48 47 -95 47 -149 0 -55
-21 -103 -83 -194 -84 -122 -97 -234 -41 -338 50 -91 112 -116 154 -62 25 32
21 63 -15 105 -48 57 -41 140 18 219 120 160 138 296 60 456 -45 91 -92 114
-138 68z"/>
</g>
</svg>
