<?xml version="1.0" standalone="no"?>
<!DOCTYPE svg PUBLIC "-//W3C//DTD SVG 20010904//EN"
 "http://www.w3.org/TR/2001/REC-SVG-20010904/DTD/svg10.dtd">
<svg version="1.0" xmlns="http://www.w3.org/2000/svg"
 width="820.000000pt" height="859.000000pt" viewBox="0 0 820.000000 859.000000"
 preserveAspectRatio="xMidYMid meet">

<g transform="translate(0.000000,859.000000) scale(0.100000,-0.100000)"
fill="#000000" stroke="none">
<path d="M7547 8156 c-80 -33 -128 -67 -169 -118 -19 -24 -228 -315 -465 -648
-236 -333 -561 -791 -722 -1018 -207 -291 -298 -412 -308 -408 -8 3 -111 60
-229 127 -268 150 -321 170 -475 176 -95 4 -130 2 -197 -15 -103 -26 -190 -68
-264 -126 -50 -40 -478 -511 -478 -526 0 -4 116 -72 258 -152 141 -80 550
-311 907 -513 358 -202 715 -404 795 -450 860 -489 1304 -735 1309 -728 7 7
156 484 192 613 8 26 13 97 13 165 -1 102 -5 132 -27 200 -37 113 -90 198
-177 285 -64 64 -102 90 -263 180 -103 58 -185 110 -183 115 2 6 230 528 506
1160 276 633 509 1177 517 1210 40 154 -33 342 -165 426 -117 74 -261 91 -375
45z"/>
<path d="M350 6841 c-85 -26 -174 -101 -213 -181 -32 -67 -36 -186 -7 -263 26
-69 94 -143 165 -177 42 -21 64 -25 145 -25 79 0 103 4 142 23 62 31 121 89
155 154 24 46 28 64 28 143 0 78 -4 97 -28 147 -35 71 -110 140 -183 167 -56
21 -154 27 -204 12z"/>
<path d="M946 5835 c-410 -104 -624 -563 -437 -940 85 -171 233 -296 416 -351
83 -25 277 -25 359 0 190 57 337 184 423 361 93 196 80 441 -35 630 -76 124
-218 237 -362 286 -85 28 -276 36 -364 14z"/>
<path d="M3665 4902 c-711 -679 -1562 -1169 -2496 -1436 -328 -94 -658 -160
-927 -187 -97 -9 -121 -15 -110 -24 7 -7 103 -66 213 -132 110 -66 469 -283
798 -482 l598 -361 197 -16 c238 -20 721 -23 836 -6 44 7 81 11 83 8 5 -5
-311 -211 -434 -282 -56 -32 -102 -62 -103 -66 0 -4 55 -40 123 -81 67 -41
263 -160 435 -266 352 -215 316 -203 501 -175 569 83 1249 327 1820 653 68 39
126 70 127 68 2 -2 -26 -55 -62 -118 -141 -248 -418 -609 -750 -977 -71 -79
-150 -167 -177 -196 l-47 -54 152 -70 c84 -38 368 -170 632 -291 l478 -222 47
37 c78 63 341 333 442 454 489 588 893 1326 1210 2210 26 74 47 135 46 136 -2
2 -387 219 -1187 669 -483 271 -1279 720 -1851 1043 -235 132 -439 247 -455
255 l-29 15 -110 -106z"/>
</g>
</svg>
