<?xml version="1.0" standalone="no"?>
<!DOCTYPE svg PUBLIC "-//W3C//DTD SVG 20010904//EN"
 "http://www.w3.org/TR/2001/REC-SVG-20010904/DTD/svg10.dtd">
<svg version="1.0" xmlns="http://www.w3.org/2000/svg"
 width="225.000000pt" height="225.000000pt" viewBox="0 0 225.000000 225.000000"
 preserveAspectRatio="xMidYMid meet">

<g transform="translate(0.000000,225.000000) scale(0.100000,-0.100000)"
fill="#000000" stroke="none">
<path d="M965 1995 c-303 -56 -562 -272 -669 -556 -45 -119 -59 -219 -53 -359
7 -143 23 -211 78 -328 51 -110 110 -191 202 -278 167 -160 368 -238 607 -238
423 1 778 292 867 709 19 89 12 322 -12 410 -23 86 -95 230 -153 306 -199 262
-543 395 -867 334z m183 -97 c-3 -55 -5 -63 -23 -63 -17 0 -20 8 -23 49 -4 60
2 76 28 76 19 0 21 -5 18 -62z m-384 -97 c23 -43 24 -50 11 -61 -20 -16 -39
-1 -66 53 -15 29 -17 42 -9 52 17 21 35 9 64 -44z m774 -19 c-28 -50 -54 -64
-65 -36 -6 17 20 76 46 101 12 12 16 12 30 -2 15 -14 14 -20 -11 -63z m-390
-321 l2 -263 25 -19 c13 -11 25 -32 27 -46 3 -23 22 -38 128 -99 69 -39 130
-77 137 -83 15 -14 6 -41 -13 -41 -8 0 -73 34 -145 76 -114 66 -133 74 -157
66 -78 -27 -136 65 -77 124 l25 25 0 258 c0 142 3 261 7 265 4 4 14 5 23 4 13
-3 15 -38 18 -267z m-669 64 c45 -28 49 -36 26 -55 -12 -10 -23 -7 -59 14 -54
31 -62 42 -45 62 14 17 22 15 78 -21z m1371 -10 c-19 -23 -89 -57 -100 -50
-25 15 -8 45 38 69 40 21 49 22 61 11 12 -12 12 -17 1 -30z m-1439 -381 c11
-14 10 -18 -6 -30 -10 -8 -35 -14 -55 -14 -20 0 -45 6 -55 14 -31 23 -3 46 55
46 31 0 52 -5 61 -16z m1543 10 c9 -3 16 -12 16 -20 0 -32 -89 -47 -125 -20
-16 12 -17 16 -6 30 14 16 83 22 115 10z m-1440 -379 c6 -18 -9 -34 -56 -59
-34 -19 -68 -17 -68 3 0 12 15 26 55 51 37 23 61 25 69 5z m1302 -11 c76 -45
47 -84 -31 -43 -41 22 -55 45 -38 62 11 11 22 8 69 -19z m-1033 -256 c7 -21
-46 -108 -66 -108 -29 0 -29 23 -1 73 25 46 57 62 67 35z m753 -33 c27 -47 26
-79 -3 -73 -22 4 -67 83 -59 103 10 28 35 15 62 -30z m-388 -117 c-3 -55 -5
-63 -23 -63 -17 0 -20 8 -23 49 -4 60 2 76 28 76 19 0 21 -5 18 -62z"/>
</g>
</svg>
