<?xml version="1.0" standalone="no"?>
<!DOCTYPE svg PUBLIC "-//W3C//DTD SVG 20010904//EN"
 "http://www.w3.org/TR/2001/REC-SVG-20010904/DTD/svg10.dtd">
<svg version="1.0" xmlns="http://www.w3.org/2000/svg"
 width="225.000000pt" height="225.000000pt" viewBox="0 0 225.000000 225.000000"
 preserveAspectRatio="xMidYMid meet">

<g transform="translate(0.000000,225.000000) scale(0.100000,-0.100000)"
fill="#000000" stroke="none">
<path d="M728 2220 c-170 -16 -311 -55 -430 -117 -90 -47 -141 -93 -172 -155
l-26 -52 0 -529 c0 -385 3 -541 12 -571 8 -27 32 -61 68 -97 127 -128 396
-208 699 -209 113 0 113 0 107 23 -3 12 -6 27 -6 33 0 8 -55 13 -172 17 -143
4 -190 9 -273 31 -170 45 -299 116 -346 193 -19 30 -23 55 -27 147 -5 124 -12
118 62 58 136 -109 410 -171 732 -164 70 2 70 2 86 36 l17 34 -142 -5 c-231
-9 -461 36 -604 118 -70 40 -138 117 -147 166 -7 48 -8 193 0 193 3 0 24 -15
47 -34 126 -101 329 -161 588 -173 293 -12 565 52 722 172 l47 36 0 -91 0 -90
30 0 30 0 0 360 c0 413 3 400 -91 484 -151 136 -498 216 -811 186z m329 -70
c196 -25 388 -102 461 -185 67 -77 67 -133 1 -209 -75 -85 -260 -159 -467
-187 -111 -15 -371 -6 -472 16 -251 55 -410 161 -412 274 -1 119 191 239 452
281 41 6 82 13 90 15 39 7 274 4 347 -5z m502 -672 c-18 -44 -104 -116 -182
-154 -162 -77 -422 -115 -640 -94 -269 26 -495 121 -554 234 -17 32 -33 236
-18 236 4 0 29 -16 55 -35 259 -190 790 -227 1149 -81 72 29 148 76 177 107
19 21 19 20 22 -82 2 -61 -2 -114 -9 -131z"/>
<path d="M1450 1134 c-132 -35 -269 -133 -340 -244 -140 -218 -106 -518 79
-700 115 -113 240 -164 401 -163 218 2 400 115 498 312 112 223 64 484 -120
662 -60 57 -183 121 -266 138 -72 15 -185 13 -252 -5z m254 -59 c101 -27 167
-64 242 -139 81 -82 118 -150 141 -264 52 -252 -124 -523 -377 -581 -58 -13
-192 -13 -250 0 -245 56 -419 315 -380 565 29 184 159 341 335 402 100 35 197
41 289 17z"/>
<path d="M1670 595 l-175 -175 -80 80 -81 81 -23 -25 -24 -25 61 -68 c33 -37
79 -86 102 -108 l41 -40 195 197 c107 108 194 201 194 206 0 5 -8 19 -17 31
-18 21 -19 21 -193 -154z"/>
</g>
</svg>
