<?xml version="1.0" standalone="no"?>
<!DOCTYPE svg PUBLIC "-//W3C//DTD SVG 20010904//EN"
 "http://www.w3.org/TR/2001/REC-SVG-20010904/DTD/svg10.dtd">
<svg version="1.0" xmlns="http://www.w3.org/2000/svg"
 width="840.000000pt" height="859.000000pt" viewBox="0 0 840.000000 859.000000"
 preserveAspectRatio="xMidYMid meet">

<g transform="translate(0.000000,859.000000) scale(0.100000,-0.100000)"
fill="#000000" stroke="none">
<path d="M3815 8406 c-294 -99 -483 -217 -728 -455 -360 -350 -631 -795 -876
-1438 -62 -161 -69 -197 -44 -209 10 -5 427 -10 936 -12 l919 -3 -5 1053 c-3
579 -8 1065 -12 1081 -10 38 -34 36 -190 -17z"/>
<path d="M4395 8424 c-4 -16 -10 -503 -12 -1081 l-4 -1053 878 1 c820 0 971 4
990 23 16 16 -139 422 -258 674 -100 213 -287 509 -445 707 -219 272 -531 537
-747 634 -79 36 -298 108 -354 117 -38 6 -41 5 -48 -22z"/>
<path d="M2705 8190 c-646 -258 -1190 -635 -1612 -1114 -230 -261 -533 -693
-533 -759 0 -10 17 -16 53 -21 68 -8 822 -8 1003 1 l140 6 39 116 c239 711
548 1271 923 1676 74 80 117 134 111 139 -2 3 -58 -17 -124 -44z"/>
<path d="M5579 8213 c6 -10 58 -70 117 -133 256 -278 480 -627 664 -1040 59
-132 201 -488 251 -632 25 -72 39 -98 54 -103 81 -22 823 -29 1076 -9 99 8
106 13 89 54 -20 49 -200 318 -312 468 -453 603 -1073 1074 -1799 1365 -127
52 -156 58 -140 30z"/>
<path d="M382 5922 c-27 -4 -48 -49 -119 -242 -90 -250 -170 -617 -209 -970
-22 -195 -25 -644 -6 -805 35 -288 111 -662 186 -907 37 -120 106 -292 126
-312 12 -12 1208 -12 1263 0 25 5 28 10 24 33 -2 14 -21 114 -41 221 -94 502
-101 601 -101 1365 0 757 7 852 101 1355 20 107 39 207 41 222 5 24 2 27 -28
32 -39 7 -1203 14 -1237 8z"/>
<path d="M2025 5920 c-5 -8 -62 -312 -94 -500 -65 -382 -86 -790 -71 -1352 14
-531 42 -785 138 -1258 l28 -135 814 -1 c448 -1 897 1 998 4 l182 5 0 1618 0
1619 -107 1 c-327 5 -1885 4 -1888 -1z"/>
<path d="M4403 5922 l-23 -3 0 -1619 0 -1618 33 -5 c27 -4 1706 -3 1897 2 l66
1 33 178 c105 567 109 607 123 1060 9 293 9 471 0 765 -14 450 -20 501 -123
1060 l-33 177 -65 1 c-141 3 -1887 4 -1908 1z"/>
<path d="M7008 5920 c-135 -3 -250 -8 -254 -12 -4 -5 5 -65 19 -135 32 -158
81 -471 101 -658 50 -452 48 -1199 -4 -1665 -21 -182 -81 -560 -105 -665 -21
-87 -20 -93 18 -100 47 -8 946 -14 1123 -8 l152 6 20 66 c11 36 45 145 77 241
248 769 281 1520 99 2270 -39 161 -48 192 -136 468 l-62 192 -100 2 c-245 3
-721 3 -948 -2z"/>
<path d="M769 2310 c-175 -8 -209 -13 -209 -34 0 -19 115 -206 218 -355 339
-493 818 -931 1348 -1234 226 -129 693 -341 711 -323 2 2 -36 47 -84 101 -290
320 -471 590 -659 980 -112 235 -275 637 -324 802 -7 23 -20 45 -29 48 -51 20
-643 29 -972 15z"/>
<path d="M6855 2311 c-94 -5 -179 -11 -190 -15 -14 -4 -28 -28 -44 -73 -217
-619 -422 -1046 -667 -1386 -78 -108 -136 -178 -273 -330 -124 -138 -133 -152
-100 -142 79 24 303 123 484 215 428 216 751 448 1081 775 223 221 345 372
533 653 114 171 169 267 158 278 -4 4 -35 11 -70 15 -94 12 -720 18 -912 10z"/>
<path d="M2203 2301 c-24 -4 -46 -10 -49 -14 -23 -22 156 -477 296 -752 202
-397 460 -738 749 -989 231 -200 387 -286 676 -372 106 -31 121 -31 130 3 4
16 9 502 12 1081 l5 1052 -888 -1 c-489 -1 -908 -5 -931 -8z"/>
<path d="M4383 1258 c2 -579 8 -1066 12 -1082 7 -27 10 -28 48 -22 62 10 284
85 363 122 338 159 725 551 1010 1020 132 218 334 659 413 903 25 78 26 87 4
97 -10 5 -431 10 -936 12 l-918 3 4 -1053z"/>
</g>
</svg>
