<?xml version="1.0" standalone="no"?>
<!DOCTYPE svg PUBLIC "-//W3C//DTD SVG 20010904//EN"
 "http://www.w3.org/TR/2001/REC-SVG-20010904/DTD/svg10.dtd">
<svg version="1.0" xmlns="http://www.w3.org/2000/svg"
 width="220.000000pt" height="229.000000pt" viewBox="0 0 220.000000 229.000000"
 preserveAspectRatio="xMidYMid meet">

<g transform="translate(0.000000,229.000000) scale(0.100000,-0.100000)"
fill="#000000" stroke="none">
<path d="M1013 2173 c-13 -13 -23 -41 -27 -77 -13 -100 -57 -118 -142 -57 -32
23 -64 41 -71 41 -24 0 -133 -111 -133 -135 0 -12 18 -47 40 -78 39 -57 40
-57 23 -91 -15 -32 -20 -34 -78 -41 -88 -9 -93 -15 -101 -110 -7 -101 0 -112
86 -126 75 -13 86 -20 95 -59 5 -24 -1 -39 -34 -84 -23 -30 -41 -62 -41 -71 0
-22 98 -124 126 -131 16 -4 40 6 85 36 61 42 62 42 94 27 30 -14 34 -21 45
-84 6 -37 16 -73 22 -80 14 -18 182 -18 196 0 5 6 15 44 21 83 11 65 14 71 44
82 29 11 35 9 88 -28 32 -22 68 -40 82 -40 16 0 42 19 80 59 32 33 57 64 57
69 0 5 -20 38 -43 73 -42 61 -43 66 -31 96 12 29 19 32 85 44 39 7 77 19 85
27 16 15 20 158 5 181 -5 7 -42 20 -82 27 -40 8 -77 20 -81 27 -23 35 -19 57
21 114 23 33 41 66 41 74 0 16 -121 139 -137 139 -5 0 -37 -20 -72 -44 -62
-44 -63 -45 -95 -29 -30 14 -34 20 -44 85 -6 39 -15 75 -19 79 -5 5 -46 12
-90 16 -72 5 -82 4 -100 -14z m182 -413 c107 -66 107 -234 0 -300 -132 -82
-299 32 -271 184 16 86 104 152 189 142 27 -3 64 -15 82 -26z"/>
<path d="M543 1029 c-106 -18 -463 -175 -463 -205 0 -15 150 -356 206 -465 13
-26 31 -49 40 -53 11 -4 46 11 99 44 51 31 94 50 113 50 18 0 115 -43 253
-113 315 -160 360 -166 531 -67 99 56 644 407 705 453 85 65 115 147 72 201
-22 28 -65 34 -114 16 -15 -6 -121 -72 -236 -147 -169 -109 -213 -142 -226
-171 -22 -45 -82 -88 -144 -101 -115 -25 -439 -8 -581 30 -45 12 -64 39 -47
70 12 24 28 24 194 -5 102 -18 370 -22 424 -6 57 16 81 46 81 101 0 40 -4 51
-30 73 -34 28 -53 32 -181 41 -47 3 -122 14 -165 25 -77 18 -81 20 -150 93
-93 97 -134 124 -214 136 -74 12 -94 12 -167 0z"/>
<path d="M1473 1030 c-50 -10 -58 -14 -187 -93 -112 -69 -111 -73 16 -78 l76
-3 121 74 c66 41 121 78 121 82 0 5 -96 31 -103 27 -1 -1 -21 -5 -44 -9z"/>
<path d="M1753 970 c-24 -5 -229 -124 -272 -156 -1 -1 9 -18 23 -37 14 -19 26
-39 26 -46 0 -7 6 -11 13 -9 19 4 337 212 337 219 0 7 -41 25 -75 32 -11 3
-34 1 -52 -3z"/>
</g>
</svg>
