<?xml version="1.0" standalone="no"?>
<!DOCTYPE svg PUBLIC "-//W3C//DTD SVG 20010904//EN"
 "http://www.w3.org/TR/2001/REC-SVG-20010904/DTD/svg10.dtd">
<svg version="1.0" xmlns="http://www.w3.org/2000/svg"
 width="512.000000pt" height="512.000000pt" viewBox="0 0 512.000000 512.000000"
 preserveAspectRatio="xMidYMid meet">

<g transform="translate(0.000000,512.000000) scale(0.100000,-0.100000)"
fill="#000000" stroke="none">
<path d="M1012 4370 c-152 -23 -293 -98 -398 -213 -143 -156 -200 -359 -163
-576 16 -92 20 -97 80 -105 115 -15 261 -100 339 -198 86 -107 106 -165 184
-551 44 -220 78 -363 89 -380 10 -16 32 -37 50 -47 31 -19 61 -20 1367 -20
1315 0 1336 0 1368 20 18 11 41 34 51 50 11 19 42 152 80 343 34 172 73 348
87 392 58 185 214 332 405 384 l47 13 13 82 c35 217 -5 394 -125 553 -83 109
-216 198 -361 240 -56 17 -163 18 -1560 19 -825 1 -1524 -2 -1553 -6z"/>
<path d="M342 3319 c-159 -31 -297 -168 -332 -330 -11 -48 -8 -129 19 -545 17
-269 38 -518 46 -554 25 -110 87 -221 168 -303 82 -81 152 -126 259 -165 l73
-27 1952 -3 c2135 -3 2020 -5 2154 56 183 84 323 255 363 444 8 40 30 289 47
553 27 408 30 489 19 540 -44 220 -261 373 -477 335 -92 -16 -164 -52 -229
-115 -89 -87 -104 -132 -183 -527 -50 -245 -77 -361 -95 -396 -30 -58 -81
-106 -150 -138 l-51 -24 -1365 0 -1365 0 -55 26 c-30 14 -70 40 -88 57 -64 61
-79 108 -153 475 -78 392 -94 439 -181 525 -60 61 -136 100 -222 116 -67 12
-92 12 -154 0z"/>
<path d="M631 1193 c-35 -133 -41 -167 -41 -215 0 -215 267 -315 409 -152 40
45 43 53 87 227 19 78 37 150 40 160 5 16 -11 17 -240 17 l-245 0 -10 -37z"/>
<path d="M3994 1213 c3 -10 21 -82 40 -160 44 -174 47 -182 87 -227 142 -163
409 -63 409 152 0 48 -6 82 -41 215 l-10 37 -245 0 c-229 0 -245 -1 -240 -17z"/>
</g>
</svg>
