<svg width="400" height="400" viewBox="0 0 400 400" fill="none" xmlns="http://www.w3.org/2000/svg">
<g clip-path="url(#clip0_602_92)">
<path fill-rule="evenodd" clip-rule="evenodd" d="M338.638 344C348.682 334.317 357.716 323.592 365.566 312H34.1202C41.9697 323.592 51.0035 334.317 61.0478 344H338.638ZM390.687 260C387.195 271.116 382.76 281.814 377.473 292H22.2125C16.9262 281.814 12.4904 271.116 8.99897 260H390.687ZM395.842 240C397.953 229.603 399.256 218.914 399.686 208H0C0.429335 218.914 1.73326 229.603 3.84365 240H395.842ZM394.987 156C397.319 166.384 398.842 177.074 399.489 188H0.196988C0.843549 177.074 2.3672 166.384 4.69853 156H394.987ZM389.384 136C385.624 124.862 380.91 114.163 375.339 104H24.3464C18.7755 114.163 14.0617 124.862 10.302 136H389.384ZM334.366 52C344.935 61.6122 354.47 72.341 362.786 84H36.9003C45.2154 72.341 54.7506 61.6122 65.3195 52H334.366ZM308.404 32C277.139 11.7547 239.864 0 199.843 0C159.822 0 122.547 11.7547 91.2817 32H308.404ZM85.34 364C117.776 386.689 157.255 400 199.843 400C242.431 400 281.91 386.689 314.346 364H85.34Z" fill="url(#paint0_linear_602_92)"/>
</g>
<defs>
<linearGradient id="paint0_linear_602_92" x1="199.843" y1="0" x2="199.843" y2="400" gradientUnits="userSpaceOnUse">
<stop stop-color="#FFFE55"/>
<stop offset="1" stop-color="#D92FB4"/>
</linearGradient>
<clipPath id="clip0_602_92">
<rect width="400" height="400" fill="white"/>
</clipPath>
</defs>
</svg>
