<svg xmlns="http://www.w3.org/2000/svg" version="1.1" xmlns:xlink="http://www.w3.org/1999/xlink" xmlns:svgjs="http://svgjs.dev/svgjs" viewBox="0 0 800 800"><g stroke-width="1" stroke="#23232A" fill="none"><rect width="400" height="400" x="0" y="0"></rect><circle r="3.75" cx="0" cy="0" fill="#17171C" stroke="none"></circle><rect width="400" height="400" x="400" y="0"></rect><circle r="3.75" cx="400" cy="0" fill="#262626" stroke="none"></circle><rect width="400" height="400" x="800" y="0"></rect><circle r="3.75" cx="800" cy="0" fill="#262626" stroke="none"></circle><rect width="400" height="400" x="0" y="400"></rect><circle r="3.75" cx="0" cy="400" fill="#262626" stroke="none"></circle><rect width="400" height="400" x="400" y="400"></rect><circle r="3.75" cx="400" cy="400" fill="#262626" stroke="none"></circle><rect width="400" height="400" x="800" y="400"></rect><circle r="3.75" cx="800" cy="400" fill="#262626" stroke="none"></circle><rect width="400" height="400" x="0" y="800"></rect><circle r="3.75" cx="0" cy="800" fill="#262626" stroke="none"></circle><rect width="400" height="400" x="400" y="800"></rect><circle r="3.75" cx="400" cy="800" fill="#262626" stroke="none"></circle><rect width="400" height="400" x="800" y="800"></rect><circle r="3.75" cx="800" cy="800" fill="#262626" stroke="none"></circle></g></svg>